<svg width="264" height="33" viewBox="0 0 264 33" fill="none" xmlns="http://www.w3.org/2000/svg">
<g clip-path="url(#clip0_8_292)">
<path d="M16.421 1.12469L2.72135 10.8308C-0.105894 12.8339 -0.792998 16.7768 1.18666 19.6376L1.19684 19.6523C3.1765 22.513 7.07326 23.2082 9.9005 21.2051L23.6001 11.499C26.4274 9.49588 27.1145 5.55298 25.1348 2.69227L25.1246 2.67755C23.145 -0.183167 19.2482 -0.878408 16.421 1.12469Z" fill="#EA4335"/>
<path d="M43.0388 31.595L56.7384 21.8889C59.5657 19.8858 60.2528 15.9429 58.2731 13.0822L58.2629 13.0675C56.2833 10.2067 52.3865 9.5115 49.5593 11.5146L35.8597 21.2207C33.0324 23.2238 32.3453 27.1667 34.325 30.0275L34.3352 30.0422C36.3148 32.9029 40.2116 33.5981 43.0388 31.595Z" fill="#F9AB00"/>
<path d="M23.6152 21.6616L10.0418 11.1725C7.29887 9.05281 3.37702 9.58441 1.28214 12.3598L1.27137 12.3741C-0.823508 15.1496 -0.298133 19.1178 2.44483 21.2375L16.0182 31.7267C18.7612 33.8463 22.683 33.3147 24.7779 30.5393L24.7887 30.525C26.8836 27.7496 26.3582 23.7813 23.6152 21.6616Z" fill="#4285F4"/>
<path d="M35.8761 11.4979L50.2302 21.6678C53.0574 23.6708 56.9542 22.9756 58.9339 20.1149L58.944 20.1002C60.9237 17.2395 60.2366 13.2966 57.4093 11.2935L43.0553 1.12364C40.228 -0.879454 36.3313 -0.184215 34.3516 2.6765L34.3414 2.69122C32.3618 5.55194 33.0489 9.49484 35.8761 11.4979Z" fill="#34A853"/>
<path d="M69.3644 14.9999C68.3347 14.4071 67.518 13.5808 66.9144 12.5209C66.3107 11.479 66.0089 10.3113 66.0089 9.03586C66.0089 7.76041 66.3107 6.61071 66.9144 5.55083C67.518 4.49095 68.3347 3.68257 69.3644 3.07179C70.3941 2.47897 71.5126 2.17358 72.7376 2.17358C73.6963 2.17358 74.584 2.33526 75.4185 2.69454C76.2529 3.03586 76.9453 3.52089 77.4957 4.13167L76.3949 5.24544C75.9866 4.72448 75.454 4.34724 74.8148 4.05981C74.1757 3.79035 73.4833 3.64664 72.7554 3.64664C71.8322 3.64664 70.98 3.86221 70.1988 4.31131C69.4177 4.76041 68.7785 5.38915 68.2992 6.19754C67.8198 7.00592 67.589 7.94005 67.589 8.99993C67.589 10.0598 67.8198 10.9939 68.2992 11.8023C68.7785 12.6107 69.4177 13.2395 70.2166 13.6886C71.0155 14.1377 71.8677 14.3532 72.7731 14.3532C73.6786 14.3532 74.371 14.2095 74.9569 13.9401C75.5427 13.6706 76.0398 13.2933 76.4659 12.8442C76.7855 12.5029 77.0341 12.0898 77.2294 11.6047C77.4246 11.1197 77.5489 10.5808 77.5844 10.0059H72.7909V8.56879H79.0225C79.0758 8.91011 79.1113 9.23346 79.1113 9.52089C79.1113 10.3293 78.987 11.1197 78.7384 11.8742C78.4899 12.6287 78.0815 13.3113 77.5312 13.8862C76.3417 15.1975 74.7438 15.8442 72.7731 15.8442C71.5481 15.8442 70.4296 15.5389 69.3999 14.946L69.3644 14.9999Z" fill="white"/>
<path d="M82.52 15.2515C81.7921 14.8204 81.224 14.2096 80.8334 13.4551C80.425 12.7006 80.2297 11.8563 80.2297 10.9402C80.2297 10.024 80.425 9.17968 80.8334 8.42519C81.2417 7.6707 81.8098 7.07788 82.52 6.62878C83.2479 6.19764 84.0646 5.96411 84.97 5.96411C85.8755 5.96411 86.6921 6.17968 87.4201 6.62878C88.148 7.07788 88.7161 7.6707 89.1067 8.42519C89.4973 9.17968 89.7103 10.024 89.7103 10.9402C89.7103 11.8563 89.515 12.6827 89.1067 13.4551C88.6983 14.2096 88.1302 14.8024 87.4201 15.2515C86.6921 15.7006 85.8755 15.9162 84.97 15.9162C84.0646 15.9162 83.2479 15.7006 82.52 15.2515ZM86.5501 14.0659C87.0472 13.7785 87.4378 13.3653 87.7219 12.8264C88.0237 12.2875 88.1657 11.6587 88.1657 10.9402C88.1657 10.2216 88.0237 9.59285 87.7219 9.05393C87.4201 8.51501 87.0295 8.10184 86.5501 7.81441C86.053 7.52699 85.5381 7.38327 84.97 7.38327C84.4019 7.38327 83.8693 7.52699 83.3722 7.81441C82.8751 8.10184 82.4845 8.51501 82.1827 9.05393C81.8809 9.59285 81.7388 10.2216 81.7388 10.9402C81.7388 11.6587 81.8809 12.2875 82.1827 12.8264C82.4845 13.3653 82.8751 13.7785 83.3722 14.0659C83.8693 14.3533 84.4019 14.497 84.97 14.497C85.5381 14.497 86.0708 14.3533 86.5501 14.0659Z" fill="white"/>
<path d="M93.0481 15.2515C92.3202 14.8204 91.752 14.2096 91.3614 13.4551C90.9531 12.7006 90.7578 11.8563 90.7578 10.9402C90.7578 10.024 90.9531 9.17968 91.3614 8.42519C91.7698 7.6707 92.3379 7.07788 93.0481 6.62878C93.776 6.19764 94.5927 5.96411 95.4981 5.96411C96.4035 5.96411 97.2202 6.17968 97.9481 6.62878C98.676 7.07788 99.2442 7.6707 99.6347 8.42519C100.025 9.17968 100.238 10.024 100.238 10.9402C100.238 11.8563 100.043 12.6827 99.6347 13.4551C99.2264 14.2096 98.6583 14.8024 97.9481 15.2515C97.2202 15.7006 96.4035 15.9162 95.4981 15.9162C94.5927 15.9162 93.776 15.7006 93.0481 15.2515ZM97.0782 14.0659C97.5753 13.7785 97.9659 13.3653 98.2499 12.8264C98.5518 12.2875 98.6938 11.6587 98.6938 10.9402C98.6938 10.2216 98.5518 9.59285 98.2499 9.05393C97.9481 8.51501 97.5575 8.10184 97.0782 7.81441C96.5811 7.52699 96.0662 7.38327 95.4981 7.38327C94.93 7.38327 94.3974 7.52699 93.9002 7.81441C93.4031 8.10184 93.0126 8.51501 92.7107 9.05393C92.4089 9.59285 92.2669 10.2216 92.2669 10.9402C92.2669 11.6587 92.4089 12.2875 92.7107 12.8264C93.0126 13.3653 93.4031 13.7785 93.9002 14.0659C94.3974 14.3533 94.93 14.497 95.4981 14.497C96.0662 14.497 96.5988 14.3533 97.0782 14.0659Z" fill="white"/>
<path d="M103.15 19.0958C102.44 18.5749 101.978 17.9641 101.73 17.2455L103.132 16.6347C103.345 17.1737 103.683 17.6048 104.162 17.9461C104.641 18.2874 105.209 18.4491 105.849 18.4491C106.807 18.4491 107.535 18.1796 108.068 17.6407C108.583 17.1018 108.849 16.3293 108.849 15.3413V14.2994H108.778C108.476 14.7665 108.05 15.1617 107.5 15.4671C106.949 15.7725 106.328 15.9162 105.636 15.9162C104.837 15.9162 104.109 15.7006 103.452 15.2874C102.795 14.8743 102.28 14.2814 101.889 13.5269C101.499 12.7725 101.304 11.9102 101.304 10.9581C101.304 10.006 101.499 9.16168 101.889 8.38922C102.28 7.63473 102.795 7.04192 103.452 6.62874C104.109 6.21557 104.837 6 105.636 6C106.328 6 106.967 6.14371 107.5 6.4491C108.05 6.75449 108.476 7.1497 108.778 7.63473H108.849V6.30539H110.323V15.2695C110.323 16.7784 109.914 17.9102 109.098 18.7006C108.281 19.491 107.198 19.8862 105.866 19.8862C104.783 19.8862 103.878 19.6347 103.185 19.1138L103.15 19.0958ZM107.358 14.0659C107.802 13.7784 108.174 13.3653 108.441 12.8443C108.707 12.3054 108.849 11.6766 108.849 10.9401C108.849 10.2036 108.707 9.55689 108.441 9.01796C108.174 8.47904 107.802 8.08383 107.358 7.79641C106.914 7.50898 106.399 7.38323 105.849 7.38323C105.298 7.38323 104.783 7.52695 104.322 7.81437C103.86 8.1018 103.505 8.51497 103.221 9.03593C102.955 9.57485 102.813 10.2036 102.813 10.9401C102.813 11.6766 102.955 12.3054 103.221 12.8443C103.487 13.3832 103.86 13.7964 104.322 14.0659C104.783 14.3533 105.28 14.479 105.849 14.479C106.417 14.479 106.914 14.3353 107.358 14.0479V14.0659Z" fill="white"/>
<path d="M112.329 2.49683H113.873V15.6106H112.329V2.49683Z" fill="white"/>
<path d="M117.531 15.2694C116.838 14.8382 116.288 14.2454 115.897 13.5089C115.507 12.7544 115.311 11.9101 115.311 10.9759C115.311 10.0418 115.489 9.25139 115.862 8.47894C116.235 7.70648 116.749 7.11367 117.424 6.66457C118.099 6.21547 118.88 5.98193 119.768 5.98193C120.655 5.98193 121.454 6.17954 122.129 6.59271C122.804 7.00589 123.301 7.56277 123.656 8.28134C124.011 8.9999 124.188 9.82624 124.188 10.7604C124.188 10.94 124.188 11.1017 124.135 11.2454H116.838C116.874 11.946 117.051 12.5568 117.353 13.0418C117.655 13.5268 118.046 13.9041 118.507 14.1376C118.969 14.3891 119.466 14.4969 119.963 14.4969C121.152 14.4969 122.058 13.94 122.697 12.8083L123.993 13.455C123.602 14.2095 123.052 14.8023 122.377 15.2514C121.703 15.7005 120.868 15.9161 119.91 15.9161C119.022 15.9161 118.241 15.7005 117.531 15.2694ZM122.555 9.95199C122.537 9.55678 122.413 9.17954 122.235 8.78433C122.04 8.38912 121.738 8.06577 121.33 7.79631C120.922 7.52684 120.389 7.4011 119.768 7.4011C119.04 7.4011 118.436 7.63463 117.939 8.10169C117.442 8.56876 117.105 9.1975 116.945 9.95199H122.573H122.555Z" fill="white"/>
<path d="M129.994 2.49683H133.9C135.231 2.49683 136.385 2.76629 137.379 3.32317C138.374 3.88006 139.137 4.65251 139.652 5.64054C140.185 6.62856 140.451 7.7603 140.451 9.05371C140.451 10.3471 140.185 11.4609 139.652 12.4669C139.119 13.4729 138.356 14.2274 137.379 14.7843C136.385 15.3411 135.231 15.6106 133.9 15.6106H129.994V2.49683ZM133.9 14.1196C135.427 14.1196 136.652 13.6705 137.539 12.7902C138.427 11.91 138.889 10.6525 138.889 9.05371C138.889 7.45491 138.445 6.21539 137.539 5.31719C136.634 4.41898 135.427 3.98784 133.9 3.98784H131.521V14.1375H133.9V14.1196Z" fill="white"/>
<path d="M143.576 15.2694C142.883 14.8382 142.333 14.2454 141.942 13.5089C141.552 12.7544 141.356 11.9101 141.356 10.9759C141.356 10.0418 141.534 9.25139 141.907 8.47894C142.28 7.70648 142.794 7.11367 143.469 6.66457C144.144 6.21547 144.925 5.98193 145.813 5.98193C146.7 5.98193 147.499 6.17954 148.174 6.59271C148.848 7.00589 149.346 7.56277 149.701 8.28134C150.056 8.9999 150.233 9.82624 150.233 10.7604C150.233 10.94 150.233 11.1017 150.18 11.2454H142.883C142.919 11.946 143.096 12.5568 143.398 13.0418C143.7 13.5268 144.09 13.9041 144.552 14.1376C145.014 14.3891 145.511 14.4969 146.008 14.4969C147.197 14.4969 148.103 13.94 148.742 12.8083L150.038 13.455C149.647 14.2095 149.097 14.8023 148.422 15.2514C147.748 15.7005 146.913 15.9161 145.955 15.9161C145.067 15.9161 144.286 15.7005 143.576 15.2694ZM148.6 9.95199C148.582 9.55678 148.458 9.17954 148.28 8.78433C148.085 8.38912 147.783 8.06577 147.375 7.79631C146.967 7.52684 146.434 7.4011 145.813 7.4011C145.085 7.4011 144.481 7.63463 143.984 8.10169C143.487 8.56876 143.149 9.1975 142.99 9.95199H148.618H148.6Z" fill="white"/>
<path d="M150.535 6.26929H152.186L155.045 13.7783H155.08L157.974 6.26929H159.59L155.826 15.6106H154.263L150.535 6.26929Z" fill="white"/>
<path d="M162.04 15.2694C161.347 14.8382 160.797 14.2454 160.406 13.5089C160.016 12.7544 159.82 11.9101 159.82 10.9759C159.82 10.0418 159.998 9.25139 160.371 8.47894C160.744 7.70648 161.258 7.11367 161.933 6.66457C162.608 6.21547 163.389 5.98193 164.277 5.98193C165.164 5.98193 165.963 6.17954 166.638 6.59271C167.312 7.00589 167.81 7.56277 168.165 8.28134C168.52 8.9999 168.697 9.82624 168.697 10.7604C168.697 10.94 168.697 11.1017 168.644 11.2454H161.347C161.383 11.946 161.56 12.5568 161.862 13.0418C162.164 13.5268 162.554 13.9041 163.016 14.1376C163.478 14.3891 163.975 14.4969 164.472 14.4969C165.661 14.4969 166.567 13.94 167.206 12.8083L168.502 13.455C168.111 14.2095 167.561 14.8023 166.886 15.2514C166.212 15.7005 165.377 15.9161 164.419 15.9161C163.531 15.9161 162.75 15.7005 162.04 15.2694ZM167.064 9.95199C167.046 9.55678 166.922 9.17954 166.744 8.78433C166.549 8.38912 166.247 8.06577 165.839 7.79631C165.431 7.52684 164.898 7.4011 164.277 7.4011C163.549 7.4011 162.945 7.63463 162.448 8.10169C161.951 8.56876 161.613 9.1975 161.454 9.95199H167.082H167.064Z" fill="white"/>
<path d="M170.189 2.49683H171.733V15.6106H170.189V2.49683Z" fill="white"/>
<path d="M175.444 15.2515C174.716 14.8204 174.148 14.2096 173.757 13.4551C173.349 12.7006 173.154 11.8563 173.154 10.9402C173.154 10.024 173.349 9.17968 173.757 8.42519C174.165 7.6707 174.734 7.07788 175.444 6.62878C176.172 6.19764 176.988 5.96411 177.894 5.96411C178.799 5.96411 179.616 6.17968 180.344 6.62878C181.072 7.07788 181.64 7.6707 182.03 8.42519C182.421 9.17968 182.634 10.024 182.634 10.9402C182.634 11.8563 182.439 12.6827 182.03 13.4551C181.622 14.2096 181.054 14.8024 180.344 15.2515C179.616 15.7006 178.799 15.9162 177.894 15.9162C176.988 15.9162 176.172 15.7006 175.444 15.2515ZM179.474 14.0659C179.971 13.7785 180.362 13.3653 180.646 12.8264C180.947 12.2875 181.089 11.6587 181.089 10.9402C181.089 10.2216 180.947 9.59285 180.646 9.05393C180.344 8.51501 179.953 8.10184 179.474 7.81441C178.977 7.52699 178.462 7.38327 177.894 7.38327C177.326 7.38327 176.793 7.52699 176.296 7.81441C175.799 8.10184 175.408 8.51501 175.106 9.05393C174.805 9.59285 174.663 10.2216 174.663 10.9402C174.663 11.6587 174.805 12.2875 175.106 12.8264C175.408 13.3653 175.799 13.7785 176.296 14.0659C176.793 14.3533 177.326 14.497 177.894 14.497C178.462 14.497 178.995 14.3533 179.474 14.0659Z" fill="white"/>
<path d="M183.966 6.26936H185.439V7.67056H185.51C185.794 7.18553 186.203 6.79032 186.771 6.46696C187.339 6.14361 187.96 5.98193 188.67 5.98193C189.487 5.98193 190.233 6.1975 190.907 6.62864C191.582 7.05978 192.115 7.65259 192.505 8.40708C192.896 9.16157 193.091 10.0059 193.091 10.958C193.091 11.9101 192.896 12.7544 192.505 13.5089C192.115 14.2634 191.582 14.8562 190.907 15.2694C190.233 15.7005 189.487 15.9161 188.67 15.9161C187.978 15.9161 187.339 15.7544 186.771 15.431C186.203 15.1077 185.794 14.7125 185.51 14.2454H185.439L185.51 15.5209V19.5628H183.966V6.26936ZM189.966 14.0478C190.428 13.7604 190.819 13.3292 191.103 12.7903C191.387 12.2514 191.529 11.6227 191.529 10.94C191.529 10.2574 191.387 9.62864 191.103 9.07175C190.819 8.53283 190.446 8.11966 189.966 7.81427C189.487 7.52684 188.99 7.36517 188.457 7.36517C187.925 7.36517 187.428 7.50888 186.948 7.81427C186.487 8.10169 186.096 8.51487 185.83 9.05379C185.563 9.59271 185.421 10.2215 185.421 10.9221C185.421 11.6227 185.563 12.2514 185.83 12.7903C186.096 13.3292 186.487 13.7424 186.948 14.0298C187.428 14.3173 187.925 14.461 188.457 14.461C188.99 14.461 189.487 14.3173 189.966 14.0298V14.0478Z" fill="white"/>
<path d="M196.305 15.2694C195.612 14.8382 195.062 14.2454 194.671 13.5089C194.281 12.7544 194.085 11.9101 194.085 10.9759C194.085 10.0418 194.263 9.25139 194.636 8.47894C195.009 7.70648 195.523 7.11367 196.198 6.66457C196.873 6.21547 197.654 5.98193 198.542 5.98193C199.429 5.98193 200.228 6.17954 200.903 6.59271C201.577 7.00589 202.075 7.56277 202.43 8.28134C202.785 8.9999 202.962 9.82624 202.962 10.7604C202.962 10.94 202.962 11.1017 202.909 11.2454H195.612C195.648 11.946 195.825 12.5568 196.127 13.0418C196.429 13.5268 196.819 13.9041 197.281 14.1376C197.743 14.3891 198.24 14.4969 198.737 14.4969C199.926 14.4969 200.832 13.94 201.471 12.8083L202.767 13.455C202.376 14.2095 201.826 14.8023 201.151 15.2514C200.477 15.7005 199.642 15.9161 198.684 15.9161C197.796 15.9161 197.015 15.7005 196.305 15.2694ZM201.329 9.95199C201.311 9.55678 201.187 9.17954 201.009 8.78433C200.814 8.38912 200.512 8.06577 200.104 7.79631C199.696 7.52684 199.163 7.4011 198.542 7.4011C197.814 7.4011 197.21 7.63463 196.713 8.10169C196.216 8.56876 195.878 9.1975 195.719 9.95199H201.347H201.329Z" fill="white"/>
<path d="M204.454 6.26936H205.927V7.77834H205.998C206.176 7.25738 206.531 6.84421 207.046 6.50289C207.56 6.16157 208.111 5.98193 208.679 5.98193C209.105 5.98193 209.46 6.05379 209.762 6.17954V7.8502C209.371 7.65259 208.945 7.56277 208.466 7.56277C208.022 7.56277 207.614 7.68852 207.241 7.94002C206.868 8.19151 206.566 8.53283 206.353 8.98193C206.122 9.41307 206.016 9.88014 206.016 10.3831V15.6107H204.471V6.26936H204.454Z" fill="white"/>
<path d="M217.556 14.9999C216.526 14.4071 215.71 13.5808 215.106 12.5209C214.502 11.479 214.2 10.3113 214.2 9.03586C214.2 7.76041 214.502 6.61071 215.106 5.55083C215.71 4.49095 216.526 3.68257 217.556 3.07179C218.586 2.47897 219.704 2.17358 220.929 2.17358C221.888 2.17358 222.776 2.33526 223.61 2.69454C224.444 3.03586 225.137 3.52089 225.687 4.13167L224.586 5.24544C224.178 4.72448 223.645 4.34724 223.006 4.05981C222.367 3.79035 221.675 3.64664 220.947 3.64664C220.024 3.64664 219.172 3.86221 218.39 4.31131C217.609 4.76041 216.97 5.38915 216.491 6.19754C216.011 7.00592 215.781 7.94005 215.781 8.99993C215.781 10.0598 216.011 10.9939 216.491 11.8023C216.97 12.6107 217.609 13.2395 218.408 13.6886C219.207 14.1377 220.059 14.3532 220.965 14.3532C221.87 14.3532 222.563 14.2095 223.148 13.9401C223.734 13.6706 224.231 13.2933 224.657 12.8442C224.977 12.5029 225.226 12.0898 225.421 11.6047C225.616 11.1197 225.74 10.5808 225.776 10.0059H220.982V8.56879H227.214C227.267 8.91011 227.303 9.23346 227.303 9.52089C227.303 10.3293 227.179 11.1197 226.93 11.8742C226.681 12.6287 226.273 13.3113 225.723 13.8862C224.533 15.1975 222.935 15.8442 220.965 15.8442C219.74 15.8442 218.621 15.5389 217.591 14.946L217.556 14.9999Z" fill="white"/>
<path d="M228.634 6.26936H230.108V7.77834H230.179C230.356 7.25738 230.712 6.84421 231.226 6.50289C231.741 6.16157 232.292 5.98193 232.86 5.98193C233.286 5.98193 233.641 6.05379 233.943 6.17954V7.8502C233.552 7.65259 233.126 7.56277 232.647 7.56277C232.203 7.56277 231.795 7.68852 231.422 7.94002C231.049 8.19151 230.747 8.53283 230.534 8.98193C230.303 9.41307 230.197 9.88014 230.197 10.3831V15.6107H228.652V6.26936H228.634Z" fill="white"/>
<path d="M236.428 15.2515C235.7 14.8204 235.132 14.2096 234.742 13.4551C234.333 12.7006 234.138 11.8563 234.138 10.9402C234.138 10.024 234.333 9.17968 234.742 8.42519C235.15 7.6707 235.718 7.07788 236.428 6.62878C237.156 6.19764 237.973 5.96411 238.878 5.96411C239.784 5.96411 240.6 6.17968 241.328 6.62878C242.056 7.07788 242.624 7.6707 243.015 8.42519C243.406 9.17968 243.619 10.024 243.619 10.9402C243.619 11.8563 243.423 12.6827 243.015 13.4551C242.607 14.2096 242.039 14.8024 241.328 15.2515C240.6 15.7006 239.784 15.9162 238.878 15.9162C237.973 15.9162 237.156 15.7006 236.428 15.2515ZM240.458 14.0659C240.956 13.7785 241.346 13.3653 241.63 12.8264C241.932 12.2875 242.074 11.6587 242.074 10.9402C242.074 10.2216 241.932 9.59285 241.63 9.05393C241.328 8.51501 240.938 8.10184 240.458 7.81441C239.961 7.52699 239.446 7.38327 238.878 7.38327C238.31 7.38327 237.778 7.52699 237.28 7.81441C236.783 8.10184 236.393 8.51501 236.091 9.05393C235.789 9.59285 235.647 10.2216 235.647 10.9402C235.647 11.6587 235.789 12.2875 236.091 12.8264C236.393 13.3653 236.783 13.7785 237.28 14.0659C237.778 14.3533 238.31 14.497 238.878 14.497C239.446 14.497 239.979 14.3533 240.458 14.0659Z" fill="white"/>
<path d="M245.873 14.91C245.287 14.2453 245.003 13.3292 245.003 12.1435V6.26929H246.548V11.91C246.548 12.8082 246.743 13.4549 247.152 13.8681C247.542 14.2813 248.093 14.4968 248.767 14.4968C249.282 14.4968 249.744 14.3531 250.152 14.0837C250.56 13.8142 250.862 13.437 251.093 12.9878C251.324 12.5387 251.43 12.0537 251.43 11.5687V6.28725H252.975V15.6286H251.501V14.2813H251.43C251.182 14.7483 250.773 15.1435 250.223 15.4489C249.673 15.7723 249.069 15.916 248.448 15.916C247.347 15.916 246.495 15.5926 245.909 14.928L245.873 14.91Z" fill="white"/>
<path d="M254.892 6.26936H256.366V7.67056H256.437C256.721 7.18553 257.129 6.79032 257.697 6.46696C258.266 6.14361 258.887 5.98193 259.597 5.98193C260.414 5.98193 261.159 6.1975 261.834 6.62864C262.509 7.05978 263.041 7.65259 263.432 8.40708C263.823 9.16157 264.018 10.0059 264.018 10.958C264.018 11.9101 263.823 12.7544 263.432 13.5089C263.041 14.2634 262.509 14.8562 261.834 15.2694C261.159 15.7005 260.414 15.9161 259.597 15.9161C258.905 15.9161 258.266 15.7544 257.697 15.431C257.129 15.1077 256.721 14.7125 256.437 14.2454H256.366L256.437 15.5209V19.5628H254.892V6.26936ZM260.893 14.0478C261.355 13.7604 261.745 13.3292 262.029 12.7903C262.313 12.2514 262.455 11.6227 262.455 10.94C262.455 10.2574 262.313 9.62864 262.029 9.07175C261.745 8.53283 261.372 8.11966 260.893 7.81427C260.414 7.52684 259.917 7.36517 259.384 7.36517C258.851 7.36517 258.354 7.50888 257.875 7.81427C257.413 8.10169 257.023 8.51487 256.756 9.05379C256.49 9.59271 256.348 10.2215 256.348 10.9221C256.348 11.6227 256.49 12.2514 256.756 12.7903C257.023 13.3292 257.413 13.7424 257.875 14.0298C258.354 14.3173 258.851 14.461 259.384 14.461C259.917 14.461 260.414 14.3173 260.893 14.0298V14.0478Z" fill="white"/>
<path d="M69.968 26.6046L67.7488 23.0298H68.6542L70.3408 25.8142H70.3764L72.0275 23.0298H72.9329L70.7492 26.6046V29.6765H69.968V26.6046Z" fill="white"/>
<path d="M73.5188 29.497C73.146 29.2814 72.8619 28.9761 72.6666 28.5808C72.4536 28.2036 72.3648 27.7725 72.3648 27.3054C72.3648 26.8383 72.4713 26.4252 72.6666 26.0299C72.8619 25.6347 73.1637 25.3473 73.5188 25.1138C73.8739 24.8802 74.3 24.7725 74.7616 24.7725C75.2232 24.7725 75.6315 24.8802 76.0044 25.1138C76.3772 25.3473 76.6612 25.6347 76.8565 26.0299C77.0518 26.4252 77.1584 26.8383 77.1584 27.3054C77.1584 27.7725 77.0518 28.2036 76.8565 28.5808C76.6435 28.9581 76.3594 29.2635 76.0044 29.497C75.6493 29.7305 75.2232 29.8383 74.7616 29.8383C74.3 29.8383 73.8916 29.7305 73.5188 29.497ZM75.5605 28.9042C75.8091 28.7605 76.0044 28.5449 76.1641 28.2755C76.3062 28.006 76.3949 27.6826 76.3949 27.3234C76.3949 26.9641 76.3239 26.6407 76.1641 26.3713C76.0221 26.1018 75.8091 25.8862 75.5605 25.7425C75.312 25.5988 75.0456 25.527 74.7616 25.527C74.4775 25.527 74.2112 25.5988 73.9627 25.7425C73.7141 25.8862 73.5188 26.1018 73.359 26.3713C73.217 26.6407 73.1282 26.9641 73.1282 27.3234C73.1282 27.6826 73.1992 28.006 73.359 28.2755C73.5011 28.5449 73.7141 28.7605 73.9627 28.9042C74.2112 29.0479 74.4775 29.1198 74.7616 29.1198C75.0456 29.1198 75.312 29.0479 75.5605 28.9042Z" fill="white"/>
<path d="M77.8507 24.9521H78.5964V25.6527H78.6319C78.7562 25.4191 78.9692 25.2215 79.2533 25.0598C79.5373 24.8982 79.8391 24.8083 80.1587 24.8083C80.7268 24.8083 81.1529 24.97 81.4547 25.3113C81.7566 25.6347 81.8986 26.0838 81.8986 26.6586V29.6946H81.1174V26.7844C81.1174 26.3353 81.0109 26.0299 80.7978 25.8323C80.5848 25.6347 80.3007 25.5269 79.9457 25.5269C79.6971 25.5269 79.4663 25.5988 79.271 25.7425C79.0757 25.8862 78.9159 26.0658 78.8094 26.2994C78.7029 26.5329 78.6496 26.7664 78.6496 27.0359V29.6946H77.8685V24.9521H77.8507Z" fill="white"/>
<path d="M83.2124 29.479C82.8751 29.2455 82.6443 28.9401 82.5023 28.5628L83.1947 28.2395C83.3189 28.5269 83.4787 28.7425 83.7095 28.9042C83.9403 29.0658 84.1889 29.1377 84.4729 29.1377C84.7748 29.1377 85.0233 29.0838 85.2186 28.9581C85.4316 28.8323 85.5382 28.6706 85.5382 28.4371C85.5382 28.2395 85.4494 28.0778 85.2896 27.9521C85.1298 27.8263 84.8635 27.7365 84.5084 27.6467L83.9403 27.503C83.5675 27.4131 83.2657 27.2515 83.0171 27.0359C82.7863 26.8203 82.662 26.5329 82.662 26.1736C82.662 25.9042 82.7508 25.6527 82.9106 25.4551C83.0704 25.2395 83.2834 25.0958 83.5497 24.97C83.816 24.8622 84.1179 24.8083 84.4197 24.8083C84.828 24.8083 85.2008 24.8982 85.5204 25.0778C85.84 25.2575 86.0708 25.5089 86.1951 25.8323L85.5204 26.1557C85.3074 25.7425 84.9345 25.5269 84.4019 25.5269C84.1534 25.5269 83.9226 25.5808 83.7273 25.7066C83.532 25.8323 83.4432 25.976 83.4432 26.1736C83.4432 26.3533 83.5142 26.479 83.6385 26.6048C83.7805 26.7125 83.9758 26.8024 84.2421 26.8742L84.9168 27.0539C85.3784 27.1796 85.7157 27.3413 85.9465 27.5748C86.1773 27.8083 86.3016 28.0958 86.3016 28.4191C86.3016 28.7066 86.2128 28.958 86.053 29.1916C85.8932 29.4072 85.6624 29.5868 85.3784 29.6946C85.0943 29.8203 84.7925 29.8742 84.4374 29.8742C83.9403 29.8742 83.5142 29.7485 83.1769 29.5149L83.2124 29.479Z" fill="white"/>
<path d="M87.9704 29.4969C87.6153 29.2813 87.3313 28.9759 87.136 28.5987C86.9407 28.2214 86.8342 27.7903 86.8342 27.3053C86.8342 26.8202 86.9229 26.425 87.1182 26.0478C87.3135 25.6705 87.5621 25.3651 87.9172 25.1316C88.2545 24.8981 88.6628 24.7903 89.1067 24.7903C89.5505 24.7903 89.9588 24.8981 90.2962 25.0957C90.6335 25.2933 90.882 25.5807 91.0773 25.9579C91.2549 26.3172 91.3437 26.7484 91.3437 27.2154C91.3437 27.3053 91.3437 27.3951 91.3081 27.449H87.6153C87.6153 27.8082 87.7219 28.1136 87.8639 28.3651C88.0237 28.6166 88.219 28.7963 88.4498 28.922C88.6806 29.0478 88.9291 29.1017 89.1954 29.1017C89.7991 29.1017 90.2607 28.8142 90.5802 28.2394L91.2371 28.5627C91.0418 28.94 90.7578 29.2454 90.4204 29.4789C90.0654 29.6945 89.657 29.8202 89.1599 29.8202C88.7161 29.8202 88.3077 29.7124 87.9527 29.4969H87.9704ZM90.527 26.8023C90.527 26.6047 90.456 26.407 90.3672 26.2094C90.2784 26.0118 90.1186 25.8502 89.9056 25.7065C89.6925 25.5627 89.4262 25.5088 89.1067 25.5088C88.7338 25.5088 88.432 25.6346 88.1657 25.8681C87.9172 26.1017 87.7396 26.425 87.6686 26.8023H90.527Z" fill="white"/>
<path d="M92.1959 23.9101C92.0893 23.8023 92.0361 23.6586 92.0361 23.5149C92.0361 23.3712 92.0893 23.2275 92.1959 23.1197C92.3024 23.0119 92.4444 22.958 92.5864 22.958C92.7285 22.958 92.8705 23.0119 92.977 23.1197C93.0835 23.2275 93.1368 23.3532 93.1368 23.5149C93.1368 23.6766 93.0835 23.8023 92.977 23.9101C92.8705 24.0179 92.7462 24.0718 92.5864 24.0718C92.4267 24.0718 92.3024 24.0179 92.1959 23.9101ZM92.1959 24.9341H92.9593V29.6766H92.1959V24.9341Z" fill="white"/>
<path d="M97.0782 29.4969C96.7054 29.2813 96.4213 28.9759 96.226 28.5807C96.0307 28.1855 95.9242 27.7364 95.9242 27.2154V23.0298H96.7054V27.2513C96.7054 27.7903 96.8474 28.2214 97.1315 28.5627C97.4155 28.904 97.8239 29.0657 98.3387 29.0657C98.8536 29.0657 99.2619 28.904 99.546 28.5627C99.83 28.2214 99.9721 27.7903 99.9721 27.2513V23.0298H100.735V27.2154C100.735 27.7364 100.647 28.1855 100.451 28.5807C100.256 28.9759 99.9898 29.2813 99.617 29.4969C99.2442 29.7124 98.8181 29.8202 98.321 29.8202C97.8239 29.8202 97.4333 29.7124 97.0604 29.4969H97.0782Z" fill="white"/>
<path d="M101.747 24.9521H102.493V25.6527H102.529C102.653 25.4191 102.866 25.2215 103.15 25.0598C103.434 24.8982 103.736 24.8083 104.055 24.8083C104.624 24.8083 105.05 24.97 105.351 25.3113C105.653 25.6347 105.795 26.0838 105.795 26.6586V29.6946H105.014V26.7844C105.014 26.3353 104.908 26.0299 104.695 25.8323C104.482 25.6347 104.197 25.5269 103.842 25.5269C103.594 25.5269 103.363 25.5988 103.168 25.7425C102.972 25.8862 102.813 26.0658 102.706 26.2994C102.6 26.5329 102.546 26.7664 102.546 27.0359V29.6946H101.765V24.9521H101.747Z" fill="white"/>
<path d="M106.825 23.9101C106.719 23.8023 106.665 23.6586 106.665 23.5149C106.665 23.3712 106.719 23.2275 106.825 23.1197C106.932 23.0119 107.074 22.958 107.216 22.958C107.358 22.958 107.5 23.0119 107.606 23.1197C107.713 23.2275 107.766 23.3532 107.766 23.5149C107.766 23.6766 107.713 23.8023 107.606 23.9101C107.5 24.0179 107.375 24.0718 107.216 24.0718C107.056 24.0718 106.932 24.0179 106.825 23.9101ZM106.825 24.9341H107.588V29.6766H106.825V24.9341Z" fill="white"/>
<path d="M108.192 24.9519H109.027L110.482 28.7603H110.5L111.974 24.9519H112.79L110.873 29.6944H110.092L108.192 24.9519Z" fill="white"/>
<path d="M114.033 29.4969C113.678 29.2813 113.394 28.9759 113.199 28.5987C113.003 28.2214 112.897 27.7903 112.897 27.3053C112.897 26.8202 112.986 26.425 113.181 26.0478C113.376 25.6705 113.625 25.3651 113.98 25.1316C114.317 24.8981 114.726 24.7903 115.169 24.7903C115.613 24.7903 116.022 24.8981 116.359 25.0957C116.696 25.2933 116.945 25.5807 117.14 25.9579C117.318 26.3172 117.406 26.7484 117.406 27.2154C117.406 27.3053 117.406 27.3951 117.371 27.449H113.678C113.678 27.8082 113.785 28.1136 113.927 28.3651C114.086 28.6166 114.282 28.7963 114.512 28.922C114.743 29.0478 114.992 29.1017 115.258 29.1017C115.862 29.1017 116.323 28.8142 116.643 28.2394L117.3 28.5627C117.105 28.94 116.82 29.2454 116.483 29.4789C116.128 29.6945 115.72 29.8202 115.223 29.8202C114.779 29.8202 114.37 29.7124 114.015 29.4969H114.033ZM116.59 26.8023C116.59 26.6047 116.519 26.407 116.43 26.2094C116.341 26.0118 116.181 25.8502 115.968 25.7065C115.755 25.5627 115.489 25.5088 115.169 25.5088C114.797 25.5088 114.495 25.6346 114.228 25.8681C113.98 26.1017 113.802 26.425 113.731 26.8023H116.59Z" fill="white"/>
<path d="M118.205 24.9521H118.951V25.7066H118.986C119.075 25.4551 119.253 25.2395 119.519 25.0598C119.785 24.8802 120.052 24.8083 120.353 24.8083C120.567 24.8083 120.744 24.8443 120.904 24.9161V25.7604C120.709 25.6527 120.478 25.6167 120.247 25.6167C120.016 25.6167 119.821 25.6886 119.626 25.8143C119.43 25.9401 119.288 26.1197 119.164 26.3353C119.057 26.5509 118.986 26.7844 118.986 27.0539V29.7125H118.205V24.97V24.9521Z" fill="white"/>
<path d="M121.703 29.479C121.365 29.2455 121.135 28.9401 120.993 28.5628L121.685 28.2395C121.809 28.5269 121.969 28.7425 122.2 28.9042C122.431 29.0658 122.679 29.1377 122.963 29.1377C123.265 29.1377 123.514 29.0838 123.709 28.9581C123.922 28.8323 124.029 28.6706 124.029 28.4371C124.029 28.2395 123.94 28.0778 123.78 27.9521C123.62 27.8263 123.354 27.7365 122.999 27.6467L122.431 27.503C122.058 27.4131 121.756 27.2515 121.507 27.0359C121.277 26.8203 121.152 26.5329 121.152 26.1736C121.152 25.9042 121.241 25.6527 121.401 25.4551C121.561 25.2395 121.774 25.0958 122.04 24.97C122.306 24.8622 122.608 24.8083 122.91 24.8083C123.318 24.8083 123.691 24.8982 124.011 25.0778C124.33 25.2575 124.561 25.5089 124.685 25.8323L124.011 26.1557C123.798 25.7425 123.425 25.5269 122.892 25.5269C122.644 25.5269 122.413 25.5808 122.218 25.7066C122.022 25.8323 121.934 25.976 121.934 26.1736C121.934 26.3533 122.005 26.479 122.129 26.6048C122.271 26.7125 122.466 26.8024 122.732 26.8742L123.407 27.0539C123.869 27.1796 124.206 27.3413 124.437 27.5748C124.668 27.8083 124.792 28.0958 124.792 28.4191C124.792 28.7066 124.703 28.958 124.543 29.1916C124.384 29.4072 124.153 29.5868 123.869 29.6946C123.585 29.8203 123.283 29.8742 122.928 29.8742C122.431 29.8742 122.005 29.7485 121.667 29.5149L121.703 29.479Z" fill="white"/>
<path d="M125.555 23.9101C125.449 23.8023 125.396 23.6586 125.396 23.5149C125.396 23.3712 125.449 23.2275 125.555 23.1197C125.662 23.0119 125.804 22.958 125.946 22.958C126.088 22.958 126.23 23.0119 126.337 23.1197C126.443 23.2275 126.496 23.3532 126.496 23.5149C126.496 23.6766 126.443 23.8023 126.337 23.9101C126.23 24.0179 126.106 24.0718 125.946 24.0718C125.786 24.0718 125.662 24.0179 125.555 23.9101ZM125.555 24.9341H126.319V29.6766H125.555V24.9341Z" fill="white"/>
<path d="M128.662 29.7303C128.503 29.6585 128.36 29.5866 128.254 29.4788C128.13 29.3531 128.041 29.2273 127.97 29.0657C127.917 28.904 127.881 28.7244 127.881 28.4908V25.6705H127.064V24.9519H127.881V23.6226H128.662V24.9519H129.799V25.6705H128.662V28.3112C128.662 28.5806 128.716 28.7782 128.804 28.904C128.929 29.0477 129.088 29.1196 129.301 29.1196C129.479 29.1196 129.657 29.0657 129.816 28.9579V29.7303C129.728 29.7663 129.639 29.8022 129.532 29.8202C129.443 29.8202 129.319 29.8561 129.177 29.8561C128.982 29.8561 128.804 29.8202 128.645 29.7663L128.662 29.7303Z" fill="white"/>
<path d="M132.107 29.389L130.171 24.9519H131.024L132.497 28.4729H132.515L133.935 24.9519H134.787L131.894 31.6884H131.077L132.124 29.389H132.107Z" fill="white"/>
</g>
<defs>
<clipPath id="clip0_8_292">
<rect width="264" height="33" fill="white"/>
</clipPath>
</defs>
</svg>
